<svg xmlns="http://www.w3.org/2000/svg" xmlns:xlink="http://www.w3.org/1999/xlink" width="127.804" height="28.532" x="0" y="0" version="1.1" viewBox="0 0 127.804 28.532" xml:space="preserve" style="enable-background:new 0 0 127.804 28.532"><style type="text/css">.st0{fill:#fff}</style><g><path d="M39.908,4.455c-0.469-1.754-1.85-3.135-3.604-3.604C33.126,0,20.38,0,20.38,0S7.634,0,4.455,0.852 C2.702,1.32,1.32,2.702,0.852,4.455C0,7.634,0,14.266,0,14.266s0,6.632,0.852,9.811c0.469,1.754,1.85,3.135,3.604,3.604 c3.179,0.852,15.924,0.852,15.924,0.852s12.746,0,15.924-0.852c1.754-0.469,3.135-1.85,3.604-3.604 c0.852-3.179,0.852-9.811,0.852-9.811S40.759,7.634,39.908,4.455z M16.304,20.38V8.152l10.589,6.114L16.304,20.38z" class="st0"/></g><g><g><path d="M59.162,25.956c-0.807-0.544-1.38-1.389-1.72-2.536c-0.34-1.146-0.51-2.672-0.51-4.576V16.25 c0-1.924,0.194-3.469,0.583-4.635c0.389-1.166,0.996-2.016,1.822-2.55c0.826-0.534,1.909-0.802,3.25-0.802 c1.321,0,2.38,0.272,3.177,0.816c0.797,0.544,1.379,1.395,1.749,2.55c0.369,1.156,0.554,2.696,0.554,4.62v2.594 c0,1.905-0.18,3.435-0.539,4.591c-0.36,1.156-0.943,2.002-1.749,2.536c-0.807,0.534-1.9,0.802-3.279,0.802 C61.081,26.772,59.969,26.5,59.162,25.956z M63.68,23.158c0.223-0.583,0.335-1.535,0.335-2.856v-5.567 c0-1.282-0.112-2.22-0.335-2.813c-0.224-0.593-0.617-0.889-1.181-0.889c-0.544,0-0.928,0.297-1.151,0.889 c-0.224,0.593-0.335,1.53-0.335,2.813v5.567c0,1.322,0.106,2.274,0.321,2.856c0.214,0.583,0.602,0.874,1.166,0.874 C63.063,24.033,63.457,23.741,63.68,23.158z" class="st0"/><path d="M121.071,18.887v0.904c0,1.147,0.033,2.007,0.102,2.58c0.068,0.573,0.208,0.991,0.423,1.253 c0.214,0.262,0.544,0.394,0.991,0.394c0.602,0,1.015-0.233,1.239-0.7c0.223-0.466,0.345-1.243,0.364-2.332l3.469,0.204 c0.019,0.156,0.029,0.369,0.029,0.641c0,1.652-0.452,2.886-1.355,3.702c-0.903,0.816-2.181,1.224-3.833,1.224 c-1.982,0-3.372-0.622-4.168-1.866c-0.797-1.243-1.195-3.167-1.195-5.771v-3.119c0-2.682,0.413-4.639,1.239-5.873 c0.826-1.234,2.239-1.851,4.241-1.851c1.38,0,2.438,0.253,3.177,0.758c0.738,0.505,1.258,1.292,1.56,2.361 c0.301,1.069,0.452,2.546,0.452,4.431v3.061H121.071z M121.581,11.366c-0.204,0.253-0.34,0.666-0.408,1.239 c-0.068,0.573-0.102,1.443-0.102,2.609v1.283h2.944v-1.283c0-1.146-0.039-2.016-0.116-2.609c-0.078-0.592-0.219-1.01-0.423-1.253 c-0.204-0.243-0.52-0.364-0.947-0.364C122.101,10.988,121.785,11.114,121.581,11.366z" class="st0"/><path d="M49.368,18.552L44.791,2.025h3.993l1.603,7.491c0.408,1.846,0.709,3.42,0.904,4.722h0.117 c0.136-0.933,0.437-2.497,0.904-4.693l1.661-7.52h3.993l-4.635,16.527v7.929h-3.964V18.552z" class="st0"/><path d="M81.055,8.613v17.868h-3.148l-0.35-2.186h-0.087c-0.855,1.652-2.138,2.478-3.848,2.478 c-1.186,0-2.06-0.388-2.623-1.166c-0.564-0.777-0.845-1.992-0.845-3.644V8.613h4.022V21.73c0,0.797,0.087,1.365,0.262,1.705 c0.175,0.34,0.466,0.51,0.874,0.51c0.35,0,0.685-0.107,1.006-0.321c0.321-0.214,0.558-0.485,0.714-0.816V8.613H81.055z" class="st0"/><path d="M101.687,8.613v17.868h-3.148l-0.35-2.186h-0.087c-0.855,1.652-2.138,2.478-3.848,2.478 c-1.186,0-2.06-0.388-2.623-1.166c-0.564-0.777-0.845-1.992-0.845-3.644V8.613h4.022V21.73c0,0.797,0.087,1.365,0.262,1.705 c0.175,0.34,0.466,0.51,0.874,0.51c0.35,0,0.685-0.107,1.006-0.321c0.321-0.214,0.558-0.485,0.714-0.816V8.613H101.687z" class="st0"/><path d="M91.985,5.261h-3.993v21.22h-3.935V5.261h-3.993V2.026h11.921V5.261z" class="st0"/><path d="M115,11.469c-0.243-1.127-0.637-1.943-1.181-2.448c-0.544-0.505-1.292-0.758-2.244-0.758 c-0.739,0-1.428,0.209-2.069,0.627c-0.641,0.418-1.137,0.967-1.487,1.647h-0.03l0-9.415h-3.877v25.359h3.323l0.408-1.691h0.087 c0.311,0.603,0.777,1.078,1.399,1.428c0.622,0.35,1.312,0.525,2.07,0.525c1.36,0,2.361-0.627,3.002-1.88 c0.641-1.253,0.962-3.211,0.962-5.873v-2.827C115.364,14.161,115.243,12.597,115,11.469z M111.313,18.758 c0,1.302-0.054,2.322-0.16,3.06c-0.107,0.739-0.287,1.263-0.539,1.574c-0.253,0.311-0.593,0.466-1.02,0.466 c-0.331,0-0.637-0.077-0.918-0.233c-0.282-0.155-0.51-0.388-0.685-0.699V12.782c0.136-0.485,0.369-0.884,0.7-1.195 c0.33-0.311,0.689-0.466,1.078-0.466c0.408,0,0.724,0.16,0.947,0.481c0.223,0.321,0.379,0.86,0.466,1.618 c0.087,0.758,0.131,1.836,0.131,3.235V18.758z" class="st0"/></g></g></svg>