<!-- Generator: Adobe Illustrator 22.0.1, SVG Export Plug-In  -->
<svg version="1.1"
	 xmlns="http://www.w3.org/2000/svg" xmlns:xlink="http://www.w3.org/1999/xlink" xmlns:a="http://ns.adobe.com/AdobeSVGViewerExtensions/3.0/"
	 x="0px" y="0px" width="227.999px" height="227.999px" viewBox="0 0 227.999 227.999"
	 style="enable-background:new 0 0 227.999 227.999;" xml:space="preserve">
<style type="text/css">
	.st0{fill:#FFFFFF;}
</style>
<defs>
</defs>
<g>
	<path class="st0" d="M113.999,20.54c30.439,0,34.045,0.116,46.066,0.665c11.115,0.507,17.151,2.364,21.168,3.925
		c5.321,2.068,9.119,4.539,13.108,8.528c3.989,3.989,6.46,7.787,8.528,13.108c1.561,4.017,3.418,10.053,3.925,21.168
		c0.548,12.021,0.665,15.626,0.665,46.066s-0.116,34.045-0.665,46.066c-0.507,11.115-2.364,17.151-3.925,21.168
		c-2.068,5.321-4.539,9.119-8.528,13.108c-3.989,3.989-7.787,6.46-13.108,8.528c-4.017,1.561-10.053,3.418-21.168,3.925
		c-12.019,0.548-15.624,0.665-46.066,0.665c-30.441,0-34.046-0.116-46.065-0.665c-11.115-0.507-17.151-2.364-21.168-3.925
		c-5.321-2.068-9.119-4.539-13.108-8.528c-3.989-3.989-6.46-7.787-8.528-13.108c-1.561-4.017-3.418-10.053-3.925-21.168
		c-0.548-12.021-0.665-15.626-0.665-46.066s0.116-34.045,0.665-46.065c0.507-11.115,2.364-17.151,3.925-21.168
		c2.068-5.321,4.539-9.119,8.528-13.108c3.989-3.989,7.787-6.46,13.108-8.528c4.017-1.561,10.053-3.418,21.168-3.925
		C79.955,20.657,83.56,20.54,113.999,20.54 M113.999,0c-30.96,0-34.843,0.131-47.002,0.686C54.864,1.24,46.577,3.167,39.325,5.985
		c-7.496,2.913-13.854,6.811-20.192,13.149C12.796,25.471,8.898,31.829,5.985,39.325C3.167,46.577,1.24,54.864,0.686,66.998
		C0.131,79.157,0,83.039,0,113.999c0,30.96,0.131,34.843,0.686,47.002c0.554,12.134,2.481,20.421,5.299,27.672
		c2.913,7.496,6.811,13.854,13.149,20.192c6.338,6.338,12.695,10.236,20.192,13.149c7.252,2.818,15.538,4.745,27.672,5.299
		c12.159,0.555,16.041,0.686,47.002,0.686s34.843-0.131,47.002-0.686c12.134-0.554,20.421-2.481,27.672-5.299
		c7.496-2.913,13.854-6.811,20.192-13.149c6.338-6.338,10.236-12.695,13.149-20.192c2.818-7.252,4.745-15.538,5.299-27.672
		c0.555-12.159,0.686-16.041,0.686-47.002s-0.131-34.843-0.686-47.002c-0.554-12.134-2.481-20.421-5.299-27.672
		c-2.913-7.496-6.811-13.854-13.149-20.192c-6.338-6.338-12.695-10.236-20.192-13.149c-7.252-2.818-15.538-4.745-27.672-5.299
		C148.842,0.131,144.96,0,113.999,0L113.999,0z"/>
	<path class="st0" d="M113.999,55.459c-32.331,0-58.54,26.209-58.54,58.54s26.209,58.54,58.54,58.54s58.54-26.209,58.54-58.54
		S146.33,55.459,113.999,55.459z M113.999,151.999c-20.987,0-38-17.013-38-38s17.013-38,38-38c20.987,0,38,17.013,38,38
		S134.986,151.999,113.999,151.999z"/>
	<circle class="st0" cx="174.853" cy="53.146" r="13.68"/>
</g>
</svg>